<svg xmlns="http://www.w3.org/2000/svg" width="38" height="35" viewBox="0 0 38 35" fill="none">
  <path d="M35.917 11.4777C36.4713 10.663 36.8177 9.70648 36.9563 8.71457C37.0949 7.72267 36.9909 6.69534 36.6791 5.77429C36.3673 4.81781 35.8477 3.96761 35.1548 3.25911L33.0069 1.09818C32.314 0.389676 31.3786 0 30.4085 0H6.60798C5.60329 0 4.70255 0.389676 4.00966 1.09818L1.86172 3.25911C1.16884 3.96761 0.649175 4.81781 0.337377 5.77429C0.0255797 6.73077 -0.0783529 7.72267 0.0602239 8.71457C0.198801 9.70648 0.545242 10.663 1.06491 11.4777C1.41678 12.0036 1.81096 12.4646 2.28048 12.8607C2.52995 13.0712 2.69318 13.3725 2.69318 13.6989V32.9099C2.775 33.8859 2.69318 33.3704 2.69318 33.9372C2.69318 33.9467 2.69318 33.956 2.69318 33.9651C2.69318 34.5174 3.1409 34.9646 3.69318 34.9646H33.2887C33.841 34.9646 34.2887 34.5174 34.2887 33.9651C34.2887 33.956 34.2887 33.9467 34.2887 33.9372C34.2887 33.3704 34.2887 33.9372 34.2887 32.9099V13.6828C34.2887 13.3654 34.4424 13.0704 34.6836 12.8641C35.1474 12.4672 35.5641 12.0051 35.917 11.4777ZM32.799 11.7257C31.8982 12.2571 30.8589 12.4342 29.8889 12.2571C28.8842 12.08 27.9834 11.584 27.3252 10.8047C27.152 10.5921 26.8748 10.4504 26.563 10.4504C26.2859 10.4504 26.0087 10.5921 25.8009 10.8047C24.9694 11.7611 23.7569 12.3279 22.5097 12.3279C21.8861 12.3279 21.2625 12.1862 20.7082 11.9383C20.1539 11.6903 19.6342 11.3006 19.2185 10.8047C19.0106 10.5921 18.7681 10.4504 18.4563 10.4504C18.1791 10.4504 17.902 10.5921 17.6941 10.8047C16.8627 11.7611 15.6501 12.3279 14.4029 12.3279C13.7793 12.3279 13.1904 12.1862 12.6014 11.9383C12.0471 11.6903 11.5275 11.3006 11.1117 10.8047C10.9039 10.5921 10.6613 10.4504 10.3495 10.4504C10.0724 10.4504 9.79524 10.5921 9.58738 10.8047C8.92914 11.584 7.99374 12.08 7.02371 12.2571C6.02472 12.4332 5.02573 12.2241 4.16297 11.7341C4.15331 11.7286 4.14239 11.7257 4.13128 11.7257C4.11971 11.7257 4.10833 11.7226 4.09843 11.7166C3.51632 11.3635 3.03665 10.9061 2.69318 10.3441C2.3121 9.77733 2.06959 9.10425 2.0003 8.43117C1.89637 7.7581 1.96565 7.04959 2.20816 6.41194C2.41603 5.77429 2.79711 5.17206 3.24749 4.67611L5.39543 2.47976C5.70723 2.16093 6.1576 1.98381 6.57333 1.98381H30.3392C30.7896 1.98381 31.2054 2.16093 31.5172 2.47976L33.6651 4.64069C34.1501 5.13664 34.4966 5.70344 34.7044 6.37652C34.9123 7.01417 34.9816 7.72267 34.9123 8.39575C34.8083 9.06882 34.5658 9.7419 34.2194 10.3087C33.873 10.9109 33.3879 11.3715 32.799 11.7257ZM28.2606 31.9099C28.2606 32.4622 27.8129 32.9099 27.2606 32.9099H23.1979C22.6456 32.9099 22.1979 32.4622 22.1979 31.9099V20.1923C22.1979 20.086 22.2325 20.0152 22.3018 19.9443C22.3711 19.8735 22.4404 19.8381 22.5443 19.8381H27.9142C28.0181 19.8381 28.0874 19.8735 28.1567 19.9443C28.226 20.0152 28.2606 20.086 28.2606 20.1923V31.9099ZM32.2793 32.9099H31.2353C30.683 32.9099 30.2353 32.4622 30.2353 31.9099V20.1923C30.2353 19.5547 29.9928 18.9524 29.5424 18.4919C29.0921 18.0314 28.5031 17.7834 27.8795 17.7834H22.5097C21.8861 17.7834 21.2971 18.0314 20.8467 18.4919C20.3964 18.9524 20.1539 19.5547 20.1539 20.1923V31.9099C20.1539 32.4622 19.7061 32.9099 19.1539 32.9099H5.70255C5.15026 32.9099 4.70255 32.4622 4.70255 31.9099V15.4611C4.70255 14.7965 5.34496 14.3143 6.00862 14.35C6.47379 14.375 6.94383 14.3488 7.40479 14.2763C8.23758 14.1433 9.03127 13.8303 9.74181 13.3825C10.1508 13.1247 10.684 13.1289 11.0963 13.3812C11.3326 13.5259 11.5817 13.6575 11.8392 13.7804C12.6707 14.17 13.5715 14.3472 14.4722 14.3472C15.6807 14.3472 16.8437 13.9974 17.85 13.3737C18.2585 13.1204 18.788 13.1267 19.1977 13.3779C19.4356 13.5239 19.6865 13.6565 19.946 13.7804C20.7775 14.17 21.6436 14.3472 22.5789 14.3472C23.7844 14.3472 24.9445 13.9992 25.9308 13.3784C26.3359 13.1233 26.8612 13.1209 27.2658 13.3768C27.9786 13.8277 28.7755 14.1427 29.6117 14.2763C30.0869 14.3511 30.5716 14.3765 31.0559 14.3475C31.7151 14.308 32.3486 14.7868 32.3486 15.4471V32.8406C32.3486 32.8789 32.3176 32.9099 32.2793 32.9099Z" fill="#101827"></path>
  <path d="M32.799 11.7257C31.8982 12.2571 30.8589 12.4342 29.8889 12.2571C28.8842 12.08 27.9834 11.584 27.3252 10.8047C27.152 10.5921 26.8748 10.4504 26.563 10.4504C26.2859 10.4504 26.0087 10.5921 25.8009 10.8047C24.9694 11.7611 23.7569 12.3279 22.5097 12.3279C21.8861 12.3279 21.2625 12.1862 20.7082 11.9383C20.1539 11.6903 19.6342 11.3006 19.2185 10.8047C19.0106 10.5921 18.7681 10.4504 18.4563 10.4504C18.1791 10.4504 17.902 10.5921 17.6941 10.8047C16.8627 11.7611 15.6501 12.3279 14.4029 12.3279C13.7793 12.3279 13.1904 12.1862 12.6014 11.9383C12.0471 11.6903 11.5275 11.3006 11.1117 10.8047C10.9039 10.5921 10.6613 10.4504 10.3495 10.4504C10.0724 10.4504 9.79524 10.5921 9.58738 10.8047C8.92914 11.584 7.99374 12.08 7.02371 12.2571C6.02472 12.4332 5.02573 12.2241 4.16297 11.7341C4.15331 11.7286 4.14239 11.7257 4.13128 11.7257C4.11971 11.7257 4.10833 11.7226 4.09843 11.7166C3.51632 11.3635 3.03665 10.9061 2.69318 10.3441C2.3121 9.77733 2.06959 9.10425 2.0003 8.43117C1.89637 7.7581 1.96565 7.04959 2.20816 6.41194C2.41603 5.77429 2.79711 5.17206 3.24749 4.67611L5.39543 2.47976C5.70723 2.16093 6.1576 1.98381 6.57333 1.98381H30.3392C30.7896 1.98381 31.2054 2.16093 31.5172 2.47976L33.6651 4.64069C34.1501 5.13664 34.4966 5.70344 34.7044 6.37652C34.9123 7.01417 34.9816 7.72267 34.9123 8.39575C34.8083 9.06882 34.5658 9.7419 34.2194 10.3087C33.873 10.9109 33.3879 11.3715 32.799 11.7257Z" fill="#EE3160"></path>
</svg>