<svg xmlns="http://www.w3.org/2000/svg" width="37" height="39" viewBox="0 0 37 39" fill="none">
  <path d="M0.040642 19.5038C0.040642 16.3663 0.0789032 13.2289 0.00238038 10.0915C-0.035881 8.94361 0.384994 8.33143 1.41805 7.83403C6.54508 5.3853 11.6339 2.8983 16.6844 0.373049C17.6409 -0.12435 18.4826 -0.12435 19.4392 0.373049C24.4897 2.8983 29.5019 5.3853 34.5524 7.79577C35.8533 8.40795 36.3507 9.13492 36.3507 10.6271C36.2742 16.5576 36.2742 22.4882 36.3507 28.4569C36.3507 29.8344 35.9299 30.5996 34.7055 31.2118C29.655 33.6605 24.6045 36.1092 19.5922 38.6345C18.5592 39.1701 17.6792 39.0936 16.6461 38.558C11.5956 36.071 6.54508 33.6605 1.49458 31.2883C0.384994 30.7909 -0.035881 30.1404 0.00238038 28.9161C0.0789032 25.7786 0.00238053 22.6412 0.040642 19.5038ZM17.22 27.4621H17.1818C17.1818 24.9751 17.1818 22.4882 17.1818 20.0012C17.1818 19.2359 17.22 18.4707 16.3017 18.0116C11.8634 15.8307 7.4251 13.6115 2.98677 11.3923C2.14502 10.9715 1.83893 11.201 1.83893 12.1576C1.91545 17.4376 1.91545 22.7177 1.95371 28.0361C1.95371 28.8395 2.14502 29.337 2.94851 29.7196C7.31031 31.8239 11.6339 33.9283 15.9574 36.071C16.9139 36.5684 17.22 36.3005 17.22 35.2675C17.1818 32.704 17.22 30.1022 17.22 27.4621ZM34.3229 20.269C34.3229 19.1594 34.3611 18.0498 34.3229 16.9402C34.2846 15.1037 34.5907 13.3054 34.2081 11.4689C32.1802 11.6602 30.6498 12.9993 28.8898 13.7263C27.9715 14.1089 27.6654 14.7211 27.7037 15.7159C27.7802 17.1316 27.7419 18.5855 27.7419 20.0394C27.7419 20.7664 27.5506 21.3786 26.7089 21.4168C25.8288 21.4551 25.6375 20.8047 25.6375 20.1159C25.5993 19.0064 25.5993 17.8968 25.5993 16.7872C25.6375 15.8307 25.408 15.4098 24.3749 15.9454C22.9975 16.6724 21.5818 17.3611 20.1662 18.0498C19.2479 18.4707 19.0183 19.1212 19.0566 20.0777C19.0948 24.9751 19.1331 29.8726 19.0948 34.7701C19.0948 36.1092 19.2861 36.6066 20.7018 35.8797C24.8723 33.737 29.0811 31.6326 33.3281 29.6048C34.2081 29.1839 34.3611 28.5717 34.3611 27.73C34.2846 25.243 34.3229 22.756 34.3229 20.269ZM24.6045 13.6115C19.8601 11.1628 15.4217 8.86709 10.9834 6.5714C10.333 6.22705 9.75905 5.99748 8.99382 6.38009C7.19553 7.33663 5.32072 8.2549 3.17808 9.32622C8.19033 11.8132 12.9347 14.1854 17.6792 16.5959C18.1766 16.8637 18.5209 16.6724 18.9418 16.4811C20.7018 15.5628 22.5001 14.6446 24.6045 13.6115ZM11.9399 4.92616C16.9522 7.45141 21.6583 9.82362 26.4028 12.2341C26.8236 12.4637 27.168 12.2724 27.5123 12.1193C29.2341 11.2776 30.9941 10.4741 33.1368 9.44101C27.9715 6.87749 23.2271 4.50528 18.4826 2.13307C18.0618 1.94177 17.7174 2.05655 17.3731 2.24786C15.6513 3.08961 13.9295 3.96962 11.9399 4.92616Z" fill="#111827"></path>
  <path d="M34.3229 20.2691C34.3229 22.7561 34.2846 25.2431 34.3229 27.7301C34.3229 28.5719 34.1698 29.184 33.2898 29.6049C29.0811 31.671 24.834 33.7371 20.6636 35.8798C19.2479 36.6068 19.0566 36.1094 19.0566 34.7702C19.0948 29.8727 19.0948 24.9753 19.0183 20.0778C19.0183 19.1213 19.2479 18.4708 20.1279 18.05C21.5436 17.3995 22.9592 16.6725 24.3366 15.9456C25.3697 15.4099 25.561 15.8308 25.561 16.7873C25.5228 17.8969 25.561 19.0065 25.5993 20.1161C25.5993 20.843 25.8288 21.4552 26.6706 21.417C27.5123 21.3787 27.7037 20.7665 27.7037 20.0396C27.7037 18.5856 27.7419 17.1699 27.6654 15.716C27.5889 14.7212 27.9332 14.109 28.8515 13.7264C30.6115 12.9612 32.142 11.6603 34.1698 11.469C34.5525 13.2673 34.2464 15.1038 34.2846 16.9404C34.3229 18.05 34.3229 19.1595 34.3229 20.2691Z" fill="#EE335F"></path>
</svg>