<svg xmlns="http://www.w3.org/2000/svg" width="23.500" height="26.800" viewBox="0 0 23.500 26.800" fill="none">
  <path d="M 18 10.5 L 18 10.2 C 20 10.2 22 9.3 22 6.2 C 22 2.8 19.3 0 13.6 0 C 8.3 0 5.2 1.7 4.1 5.3 L 0 18.7 L 4.6 18.7 L 4.2 22 L 3.6 26.8 L 6.4 22 L 7.8 19.5 L 8.5 18.3 L 9.6 16.4 L 9.9 15.8 L 10.6 14.6 L 8.5 14.6 L 6.4 14.6 L 8.3 7.2 L 8.4 6.7 C 9 4.8 10.7 4.1 13.4 4.1 C 16.4 4.1 17.7 5.1 17.7 6.5 C 17.7 8.5 15.2 8.7 13.9 8.7 L 11.4 8.7 C 11.2 8.7 11.1 8.8 11 9 L 10.1 12.1 C 10 12.3 10.2 12.6 10.5 12.6 L 15.2 12.6 C 16.6 12.6 19.3 12.7 19.3 15.1 C 19.3 17.4 16.8 18 14.8 18 C 13.5 18 12.3 17.8 11.3 17.4 L 10.6 18.6 C 9.9 19.8 10.5 21.4 11.8 21.8 C 12.7 22.1 13.7 22.2 14.8 22.2 C 21 22.2 23.5 18.9 23.5 15.5 C 23.5 11.1 20.1 10.5 18 10.5 Z" fill="currentColor" fill-rule="nonzero"></path>
</svg>